<svg xmlns="http://www.w3.org/2000/svg" xmlns:svg="http://www.w3.org/2000/svg" viewBox="0 0 64 64" version="1.1" x="0px" y="0px"><g transform="translate(-480,-96)"><path style="fill:#A3D391;" d="m 512,104 c -13.24298,0 -24,10.75702 -24,24 0,13.24298 10.75702,24 24,24 13.24298,0 24,-10.75702 24,-24 0,-13.24298 -10.75702,-24 -24,-24 z m 0,2 c 12.1621,0 22,9.8379 22,22 0,12.1621 -9.8379,22 -22,22 -12.1621,0 -22,-9.8379 -22,-22 0,-12.1621 9.8379,-22 22,-22 z" fill="#A3D391" fill-rule="evenodd" stroke-linecap="square" stroke-miterlimit="3.3"/><path  d="m 523.17383,114.49023 a 1.0001,1.0001 0 0 0 -0.44922,0.008 l -16,4 a 1.0001,1.0001 0 0 0 -0.75781,0.97265 L 505.99219,132 c -0.83581,-0.62793 -1.87268,-1 -2.99219,-1 -2.74958,0 -5,2.25042 -5,5 0,2.74958 2.25042,5 5,5 2.74958,0 5,-2.25042 5,-5 a 1,1 0 0 0 0,-0.002 l -0.0312,-15.74805 14,-3.5 0.0234,11.25 c -0.83581,-0.62793 -1.87268,-1 -2.99219,-1 -2.74958,0 -5,2.25042 -5,5 0,2.74958 2.25042,5 5,5 2.74958,0 5,-2.25042 5,-5 a 1,1 0 0 0 0,-0.002 l -0.0332,-16.53125 a 1.0001,1.0001 0 0 0 -0.79297,-0.97657 z" fill="#A3D391" fill-rule="evenodd" stroke-linecap="round" stroke-linejoin="round" stroke-miterlimit="3.3"/></g></svg>